<svg width="22" height="20" viewBox="0 0 22 20" fill="none" xmlns="http://www.w3.org/2000/svg">
<path d="M10.1249 13.1917H11.9082C12.1292 13.1917 12.3412 13.2795 12.4975 13.4358C12.6537 13.592 12.7415 13.804 12.7415 14.025V18.0084H9.2832V14.025C9.2832 13.9149 9.30503 13.8058 9.34743 13.7042C9.38982 13.6025 9.45195 13.5103 9.53022 13.4328C9.60849 13.3553 9.70134 13.2941 9.80341 13.2527C9.90548 13.2113 10.0147 13.1906 10.1249 13.1917Z" stroke="#5F6368" stroke-width="2" stroke-linecap="square"/>
<path d="M17.0831 6.90833V17.1917C17.0831 17.4127 16.9953 17.6246 16.839 17.7809C16.6827 17.9372 16.4708 18.025 16.2497 18.025H5.77474C5.55373 18.025 5.34176 17.9372 5.18548 17.7809C5.0292 17.6246 4.94141 17.4127 4.94141 17.1917V6.90833" stroke="#5F6368" stroke-width="2" stroke-linecap="square"/>
<path d="M2.2085 7.96664L11.0002 1.99164L19.7835 7.96664" stroke="#5F6368" stroke-width="2" stroke-linecap="square"/>
</svg>
