<svg width="133" height="119" viewBox="0 0 133 119" fill="none" xmlns="http://www.w3.org/2000/svg">
<path d="M98.7636 47.984C90.194 46.8405 80.1229 64.8592 87.3947 69.3332M98.7636 47.984C98.7636 47.984 93.165 43.7668 80.5679 38.1435C66.4406 31.8371 62.3724 53.6073 66.5713 55.013C74.0362 62.0419 95.1787 74.1223 87.3947 69.3332M98.7636 47.984C106.99 52.4637 108.39 53.8695 115.56 59.2304C122.73 64.5914 112.76 80.3173 102.963 78.9115L87.3947 69.3332" stroke="white" stroke-width="3"/>
<path d="M61.8698 34.6612C58.5002 26.6994 37.8637 27.1812 37.7053 35.7176M61.8698 34.6612C61.8698 34.6612 62.6572 27.6964 61.0995 13.9894C59.3526 -1.38265 38.5351 6.17554 39.458 10.5063C37.1972 20.5072 37.5358 44.8553 37.7053 35.7176M61.8698 34.6612C62.1917 44.0227 61.6921 45.9426 60.7182 54.8421C59.7442 63.7415 41.1341 63.1459 37.3663 53.9931L37.7053 35.7176" stroke="white" stroke-width="3"/>
<path d="M12.7008 104.2C12.1841 104.2 11.7841 104.058 11.5008 103.775C11.2341 103.475 11.1008 103.067 11.1008 102.55V88C11.1008 87.4667 11.2424 87.0667 11.5258 86.8C11.8091 86.5167 12.2091 86.375 12.7258 86.375H18.7508C20.6841 86.375 22.1758 86.8583 23.2258 87.825C24.2758 88.7917 24.8008 90.1417 24.8008 91.875C24.8008 93.6083 24.2758 94.9667 23.2258 95.95C22.1758 96.9167 20.6841 97.4 18.7508 97.4H14.3008V102.55C14.3008 103.067 14.1674 103.475 13.9008 103.775C13.6341 104.058 13.2341 104.2 12.7008 104.2ZM14.3008 94.875H18.2508C19.3841 94.875 20.2424 94.625 20.8258 94.125C21.4091 93.6083 21.7008 92.8583 21.7008 91.875C21.7008 90.8917 21.4091 90.15 20.8258 89.65C20.2424 89.15 19.3841 88.9 18.2508 88.9H14.3008V94.875ZM28.6594 104.175C28.1594 104.175 27.776 104.025 27.5094 103.725C27.2427 103.425 27.1094 103.008 27.1094 102.475V93.3C27.1094 92.75 27.2427 92.3333 27.5094 92.05C27.776 91.75 28.1594 91.6 28.6594 91.6C29.1594 91.6 29.5427 91.75 29.8094 92.05C30.0927 92.3333 30.2344 92.75 30.2344 93.3V102.475C30.2344 103.008 30.101 103.425 29.8344 103.725C29.5677 104.025 29.176 104.175 28.6594 104.175ZM28.6594 89.275C28.076 89.275 27.6177 89.1333 27.2844 88.85C26.9677 88.55 26.8094 88.1417 26.8094 87.625C26.8094 87.0917 26.9677 86.6833 27.2844 86.4C27.6177 86.1167 28.076 85.975 28.6594 85.975C29.2594 85.975 29.7177 86.1167 30.0344 86.4C30.351 86.6833 30.5094 87.0917 30.5094 87.625C30.5094 88.1417 30.351 88.55 30.0344 88.85C29.7177 89.1333 29.2594 89.275 28.6594 89.275ZM37.6564 104.25C36.2731 104.25 35.2314 103.858 34.5314 103.075C33.8314 102.275 33.4814 101.108 33.4814 99.575V87.75C33.4814 87.2333 33.6148 86.8417 33.8814 86.575C34.1481 86.3083 34.5314 86.175 35.0314 86.175C35.5314 86.175 35.9148 86.3083 36.1814 86.575C36.4648 86.8417 36.6064 87.2333 36.6064 87.75V99.425C36.6064 100.192 36.7648 100.758 37.0814 101.125C37.4148 101.492 37.8814 101.675 38.4814 101.675C38.6148 101.675 38.7398 101.675 38.8564 101.675C38.9731 101.658 39.0898 101.642 39.2064 101.625C39.4398 101.592 39.5981 101.658 39.6814 101.825C39.7648 101.975 39.8064 102.292 39.8064 102.775C39.8064 103.192 39.7231 103.517 39.5564 103.75C39.3898 103.983 39.1148 104.125 38.7314 104.175C38.5648 104.192 38.3898 104.208 38.2064 104.225C38.0231 104.242 37.8398 104.25 37.6564 104.25ZM45.6398 104.25C44.2565 104.25 43.2148 103.858 42.5148 103.075C41.8148 102.275 41.4648 101.108 41.4648 99.575V87.75C41.4648 87.2333 41.5982 86.8417 41.8648 86.575C42.1315 86.3083 42.5148 86.175 43.0148 86.175C43.5148 86.175 43.8982 86.3083 44.1648 86.575C44.4482 86.8417 44.5898 87.2333 44.5898 87.75V99.425C44.5898 100.192 44.7482 100.758 45.0648 101.125C45.3982 101.492 45.8648 101.675 46.4648 101.675C46.5982 101.675 46.7232 101.675 46.8398 101.675C46.9565 101.658 47.0732 101.642 47.1898 101.625C47.4232 101.592 47.5815 101.658 47.6648 101.825C47.7482 101.975 47.7898 102.292 47.7898 102.775C47.7898 103.192 47.7065 103.517 47.5398 103.75C47.3732 103.983 47.0982 104.125 46.7148 104.175C46.5482 104.192 46.3732 104.208 46.1898 104.225C46.0065 104.242 45.8232 104.25 45.6398 104.25ZM64.7354 104.25C62.902 104.25 61.327 103.883 60.0104 103.15C58.7104 102.4 57.7104 101.35 57.0104 100C56.3104 98.6333 55.9604 97.025 55.9604 95.175C55.9604 93.7917 56.1604 92.55 56.5604 91.45C56.9604 90.3333 57.5354 89.3833 58.2854 88.6C59.0354 87.8 59.952 87.1917 61.0354 86.775C62.1354 86.3417 63.3687 86.125 64.7354 86.125C65.652 86.125 66.552 86.2417 67.4354 86.475C68.3187 86.7083 69.0937 87.0417 69.7604 87.475C70.1104 87.6917 70.3437 87.9583 70.4604 88.275C70.577 88.575 70.602 88.875 70.5354 89.175C70.4687 89.4583 70.327 89.7 70.1104 89.9C69.9104 90.1 69.652 90.2167 69.3354 90.25C69.0354 90.2667 68.702 90.1583 68.3354 89.925C67.8187 89.5917 67.2604 89.35 66.6604 89.2C66.0604 89.05 65.452 88.975 64.8354 88.975C63.652 88.975 62.652 89.2167 61.8354 89.7C61.0187 90.1833 60.402 90.8833 59.9854 91.8C59.5687 92.7167 59.3604 93.8417 59.3604 95.175C59.3604 96.4917 59.5687 97.6167 59.9854 98.55C60.402 99.4833 61.0187 100.192 61.8354 100.675C62.652 101.158 63.652 101.4 64.8354 101.4C65.4687 101.4 66.0937 101.325 66.7104 101.175C67.327 101.008 67.9104 100.758 68.4604 100.425C68.827 100.208 69.152 100.117 69.4354 100.15C69.7354 100.167 69.9854 100.267 70.1854 100.45C70.3854 100.633 70.5187 100.867 70.5854 101.15C70.652 101.417 70.6354 101.7 70.5354 102C70.4354 102.283 70.2354 102.533 69.9354 102.75C69.2687 103.233 68.4687 103.608 67.5354 103.875C66.6187 104.125 65.6854 104.25 64.7354 104.25ZM77.9236 104.25C76.657 104.25 75.557 103.992 74.6236 103.475C73.6903 102.958 72.9653 102.225 72.4486 101.275C71.932 100.308 71.6736 99.175 71.6736 97.875C71.6736 96.8917 71.8153 96.0167 72.0986 95.25C72.3986 94.4667 72.8236 93.8 73.3736 93.25C73.9236 92.6833 74.582 92.2583 75.3486 91.975C76.1153 91.675 76.9736 91.525 77.9236 91.525C79.1903 91.525 80.2903 91.7833 81.2236 92.3C82.157 92.8167 82.882 93.55 83.3986 94.5C83.9153 95.45 84.1736 96.575 84.1736 97.875C84.1736 98.8583 84.0236 99.7417 83.7236 100.525C83.4403 101.308 83.0236 101.983 82.4736 102.55C81.9236 103.1 81.2653 103.525 80.4986 103.825C79.732 104.108 78.8736 104.25 77.9236 104.25ZM77.9236 101.875C78.5403 101.875 79.082 101.725 79.5486 101.425C80.0153 101.125 80.3736 100.683 80.6236 100.1C80.8903 99.5 81.0236 98.7583 81.0236 97.875C81.0236 96.5417 80.7403 95.55 80.1736 94.9C79.607 94.2333 78.857 93.9 77.9236 93.9C77.307 93.9 76.7653 94.05 76.2986 94.35C75.832 94.6333 75.4653 95.075 75.1986 95.675C74.9486 96.2583 74.8236 96.9917 74.8236 97.875C74.8236 99.1917 75.107 100.192 75.6736 100.875C76.2403 101.542 76.9903 101.875 77.9236 101.875ZM91.1779 104.25C90.1613 104.25 89.3196 104.067 88.6529 103.7C87.9863 103.317 87.4863 102.75 87.1529 102C86.8363 101.25 86.6779 100.317 86.6779 99.2V93.15C86.6779 92.6167 86.8113 92.225 87.0779 91.975C87.3446 91.7083 87.7279 91.575 88.2279 91.575C88.7279 91.575 89.1113 91.7083 89.3779 91.975C89.6613 92.225 89.8029 92.6167 89.8029 93.15V99.25C89.8029 100.117 89.9779 100.758 90.3279 101.175C90.6779 101.592 91.2363 101.8 92.0029 101.8C92.8363 101.8 93.5196 101.517 94.0529 100.95C94.5863 100.367 94.8529 99.6 94.8529 98.65V93.15C94.8529 92.6167 94.9863 92.225 95.2529 91.975C95.5196 91.7083 95.9029 91.575 96.4029 91.575C96.9029 91.575 97.2863 91.7083 97.5529 91.975C97.8363 92.225 97.9779 92.6167 97.9779 93.15V102.6C97.9779 103.667 97.4696 104.2 96.4529 104.2C95.9696 104.2 95.5946 104.067 95.3279 103.8C95.0613 103.517 94.9279 103.117 94.9279 102.6V100.7L95.2779 101.45C94.9279 102.35 94.3946 103.042 93.6779 103.525C92.9779 104.008 92.1446 104.25 91.1779 104.25ZM102.78 104.2C102.28 104.2 101.897 104.067 101.63 103.8C101.364 103.517 101.23 103.117 101.23 102.6V93.15C101.23 92.6333 101.364 92.2417 101.63 91.975C101.897 91.7083 102.272 91.575 102.755 91.575C103.239 91.575 103.614 91.7083 103.88 91.975C104.147 92.2417 104.28 92.6333 104.28 93.15V94.85L104.005 94.225C104.372 93.3417 104.939 92.675 105.705 92.225C106.489 91.7583 107.372 91.525 108.355 91.525C109.339 91.525 110.147 91.7083 110.78 92.075C111.414 92.4417 111.889 93 112.205 93.75C112.522 94.4833 112.68 95.4167 112.68 96.55V102.6C112.68 103.117 112.547 103.517 112.28 103.8C112.014 104.067 111.63 104.2 111.13 104.2C110.63 104.2 110.239 104.067 109.955 103.8C109.689 103.517 109.555 103.117 109.555 102.6V96.7C109.555 95.75 109.372 95.0583 109.005 94.625C108.655 94.1917 108.105 93.975 107.355 93.975C106.439 93.975 105.705 94.2667 105.155 94.85C104.622 95.4167 104.355 96.175 104.355 97.125V102.6C104.355 103.667 103.83 104.2 102.78 104.2ZM121.454 104.25C120.371 104.25 119.463 104.067 118.729 103.7C118.013 103.333 117.479 102.8 117.129 102.1C116.779 101.383 116.604 100.5 116.604 99.45V94.125H115.304C114.904 94.125 114.596 94.025 114.379 93.825C114.163 93.6083 114.054 93.3167 114.054 92.95C114.054 92.5667 114.163 92.275 114.379 92.075C114.596 91.875 114.904 91.775 115.304 91.775H116.604V89.5C116.604 88.9833 116.738 88.5917 117.004 88.325C117.288 88.0583 117.679 87.925 118.179 87.925C118.679 87.925 119.063 88.0583 119.329 88.325C119.596 88.5917 119.729 88.9833 119.729 89.5V91.775H122.379C122.779 91.775 123.088 91.875 123.304 92.075C123.521 92.275 123.629 92.5667 123.629 92.95C123.629 93.3167 123.521 93.6083 123.304 93.825C123.088 94.025 122.779 94.125 122.379 94.125H119.729V99.275C119.729 100.075 119.904 100.675 120.254 101.075C120.604 101.475 121.171 101.675 121.954 101.675C122.238 101.675 122.488 101.65 122.704 101.6C122.921 101.55 123.113 101.517 123.279 101.5C123.479 101.483 123.646 101.55 123.779 101.7C123.913 101.833 123.979 102.117 123.979 102.55C123.979 102.883 123.921 103.183 123.804 103.45C123.704 103.7 123.513 103.875 123.229 103.975C123.013 104.042 122.729 104.1 122.379 104.15C122.029 104.217 121.721 104.25 121.454 104.25Z" fill="white"/>
</svg>
