<svg width="102" height="81" viewBox="0 0 102 81" fill="none" xmlns="http://www.w3.org/2000/svg">
<path d="M80.7636 47.984C72.194 46.8405 62.1229 64.8592 69.3947 69.3332M80.7636 47.984C80.7636 47.984 75.165 43.7668 62.5679 38.1435C48.4406 31.8371 44.3724 53.6073 48.5713 55.013C56.0362 62.0419 77.1787 74.1223 69.3947 69.3332M80.7636 47.984C88.99 52.4637 90.3897 53.8695 97.5597 59.2304C104.73 64.5914 94.7604 80.3173 84.9627 78.9115L69.3947 69.3332" stroke="white" stroke-width="3"/>
<path d="M43.8698 34.6612C40.5002 26.6994 19.8636 27.1812 19.7053 35.7176M43.8698 34.6612C43.8698 34.6612 44.6572 27.6964 43.0994 13.9894C41.3525 -1.38265 20.5351 6.17554 21.4579 10.5063C19.1972 20.5072 19.5358 44.8553 19.7053 35.7176M43.8698 34.6612C44.1916 44.0227 43.6921 45.9426 42.7181 54.8421C41.7441 63.7415 23.134 63.1459 19.3663 53.9931L19.7053 35.7176" stroke="white" stroke-width="3"/>
</svg>
